<svg width="123" height="106" viewBox="0 0 123 106" fill="none" xmlns="http://www.w3.org/2000/svg">
<path d="M101.339 85.5834C101.339 96.6291 83.4306 105.583 61.3392 105.583C39.2478 105.583 21.3392 96.6291 21.3392 85.5834V53.5834L56.9574 70.9467C59.7231 72.295 62.9553 72.295 65.721 70.9467L101.339 53.5834V85.5834Z" fill="#555555"/>
<path d="M97.3392 85.5834V59.9828L67.474 74.5424C63.7229 76.371 59.359 76.4276 55.5697 74.7133L55.2044 74.5424L25.3392 59.9828V85.5834C25.3392 88.7749 28.0307 92.7411 34.8441 96.1478C41.4182 99.4348 50.78 101.583 61.3392 101.583V105.583C39.2478 105.583 21.3392 96.6291 21.3392 85.5834V53.5834L56.9574 70.9467C59.7231 72.295 62.9553 72.295 65.721 70.9467L101.339 53.5834V85.5834C101.339 96.6291 83.4306 105.583 61.3392 105.583V101.583C71.8984 101.583 81.2602 99.4348 87.8343 96.1478C94.6477 92.7411 97.3392 88.7749 97.3392 85.5834Z" fill="#333333"/>
<path d="M29.3392 48.5834L61.3392 32.5834L93.3392 48.5834L62.2336 64.1362C61.6706 64.4177 61.0078 64.4177 60.4448 64.1362L29.3392 48.5834Z" fill="#FFF07C"/>
<path d="M97.8109 48.5834L63.1283 65.9252C62.0022 66.4882 60.6763 66.4882 59.5501 65.9252L24.8675 48.5834L61.3392 30.347L97.8109 48.5834ZM33.8119 48.5834L61.3392 62.347L88.8665 48.5834L61.3392 34.8197L33.8119 48.5834Z" fill="#333333"/>
<path d="M4.49462 36.1611C1.54643 34.687 1.54643 30.4798 4.49462 29.0057L29.3392 16.5834L61.3392 32.5834L29.3392 48.5834L4.49462 36.1611Z" fill="#B9DAFF"/>
<path d="M65.8109 32.5834L29.3392 50.8197L3.59995 37.9496C-0.821897 35.7383 -0.821888 29.4284 3.59995 27.2172L29.3392 14.347L65.8109 32.5834ZM5.38901 30.7943C3.91491 31.5314 3.91492 33.6354 5.38901 34.3724L29.3382 46.347L56.8666 32.5834L29.3382 18.8187L5.38901 30.7943Z" fill="#333333"/>
<path d="M29.3392 16.5834L55.9726 3.26663C59.351 1.57746 63.3274 1.57747 66.7058 3.26663L93.3392 16.5833L61.3392 32.5834L29.3392 16.5834Z" fill="#FF7C7C"/>
<path d="M55.4496 1.2992C59.3087 -0.490698 63.7817 -0.431168 67.5999 1.47791L97.8109 16.5834L61.3392 34.8197L24.8675 16.5834L55.0785 1.47791L55.4496 1.2992ZM65.8109 5.05506C63.0836 3.69161 59.8886 3.64959 57.1322 4.9281L56.8675 5.05506L33.8109 16.5824L61.3392 30.347L88.8665 16.5824L65.8109 5.05506Z" fill="#333333"/>
<path d="M61.3392 32.5834L93.3392 16.5833L118.184 29.0057C121.132 30.4798 121.132 34.687 118.184 36.1611L93.3392 48.5834L61.3392 32.5834Z" fill="#EEEEEE"/>
<path d="M119.078 27.2172L119.283 27.3236C123.499 29.6244 123.431 35.7729 119.078 37.9496L93.3392 50.8197L56.8666 32.5834L93.3392 14.347L119.078 27.2172ZM65.8109 32.5834L93.3392 46.347L117.289 34.3724C118.717 33.6584 118.762 31.6617 117.423 30.8676L117.289 30.7943L93.3392 18.8187L65.8109 32.5834Z" fill="#333333"/>
<path d="M10.8392 38.5834V74.5834H7.83921V38.5834H10.8392Z" fill="#333333"/>
<path d="M7.59207 64.0782C7.87576 63.2078 9.08291 63.1445 9.45603 63.9805L19.3648 86.182C19.7022 86.9379 19.0274 87.753 18.2218 87.5628L10.1186 85.6493C9.93601 85.6062 9.74502 85.6153 9.5674 85.6756L1.32303 88.4733C0.543255 88.7379 -0.204254 87.9993 0.0509129 87.2164L7.59207 64.0782Z" fill="#333333"/>
<path d="M15.3392 62.5834C15.3392 65.8971 12.6529 68.5834 9.3392 68.5834C6.0255 68.5834 3.33921 65.8971 3.33921 62.5834C3.33921 59.2697 6.0255 56.5834 9.3392 56.5834C12.6529 56.5834 15.3392 59.2697 15.3392 62.5834Z" fill="#333333"/>
</svg>
