<svg width="272" height="272" viewBox="0 0 272 272" fill="none" xmlns="http://www.w3.org/2000/svg">
<path d="M64.2858 9.1996C65.3436 6.0262 68.3134 3.88571 71.6585 3.88571H104.914C109.206 3.88571 112.686 7.3651 112.686 11.6571V42.7429C112.686 47.0349 109.206 50.5143 104.914 50.5143H61.2966C55.9921 50.5143 52.2465 45.3176 53.9239 40.2853L64.2858 9.1996Z" fill="#FFFF00"/>
<path d="M108.8 11.6571C108.8 9.51112 107.06 7.77143 104.914 7.77143H71.658C70.1946 7.77159 68.8738 8.59056 68.2125 9.85848L67.9734 10.4277L57.6103 41.5134C56.7717 44.029 58.6435 46.6275 61.2949 46.6286H104.914C107.06 46.6286 108.8 44.8889 108.8 42.7429V11.6571ZM116.571 42.7429C116.571 49.1809 111.352 54.4 104.914 54.4H61.2949C53.3397 54.3989 47.7227 46.6056 50.2373 39.0583L60.6004 7.97254L60.9306 7.09598C62.7459 2.82169 66.9546 0.000174352 71.658 0H104.914C111.352 5.00687e-07 116.571 5.21908 116.571 11.6571V42.7429Z" fill="black"/>
<path d="M50.5143 58.2857C50.5143 53.9937 53.9937 50.5143 58.2857 50.5143H104.914C109.206 50.5143 112.686 53.9937 112.686 58.2857V97.1429C112.686 105.727 105.727 112.686 97.1429 112.686H58.2857C53.9937 112.686 50.5143 109.206 50.5143 104.914V58.2857Z" fill="#FF7F00"/>
<path d="M108.8 97.1429V58.2857C108.8 56.1397 107.06 54.4 104.914 54.4H58.2857C56.1397 54.4 54.4 56.1397 54.4 58.2857V104.914C54.4 107.06 56.1397 108.8 58.2857 108.8H97.1429C103.581 108.8 108.8 103.581 108.8 97.1429ZM116.571 97.1429C116.571 107.873 107.873 116.571 97.1429 116.571H58.2857C51.8477 116.571 46.6286 111.352 46.6286 104.914V58.2857C46.6286 51.8477 51.8477 46.6286 58.2857 46.6286H104.914C111.352 46.6286 116.571 51.8477 116.571 58.2857V97.1429Z" fill="black"/>
<path d="M50.5143 120.457C50.5143 116.165 53.9937 112.686 58.2857 112.686H104.914C109.206 112.686 112.686 116.165 112.686 120.457V151.543C112.686 155.835 109.206 159.314 104.914 159.314H58.2857C53.9937 159.314 50.5143 155.835 50.5143 151.543V120.457Z" fill="#DDDDDD"/>
<path d="M108.8 120.457C108.8 118.311 107.06 116.571 104.914 116.571H58.2857C56.1397 116.571 54.4 118.311 54.4 120.457V151.543L54.419 151.941C54.6184 153.9 56.2742 155.429 58.2857 155.429H104.914C107.06 155.429 108.8 153.689 108.8 151.543V120.457ZM116.571 151.543C116.571 157.981 111.352 163.2 104.914 163.2H58.2857C52.0487 163.2 46.9558 158.302 46.6437 152.142L46.6286 151.543V120.457C46.6286 114.019 51.8477 108.8 58.2857 108.8H104.914C111.352 108.8 116.571 114.019 116.571 120.457V151.543Z" fill="black"/>
<path d="M50.5143 167.086C50.5143 162.794 53.9937 159.314 58.2857 159.314H97.1429C105.727 159.314 112.686 166.273 112.686 174.857V213.714C112.686 218.006 109.206 221.486 104.914 221.486H58.2857C53.9937 221.486 50.5143 218.006 50.5143 213.714V167.086Z" fill="#FF0000"/>
<path d="M46.6286 213.714V167.086C46.6286 160.648 51.8477 155.429 58.2857 155.429H97.1429C107.873 155.429 116.571 164.127 116.571 174.857V213.714C116.571 220.152 111.352 225.371 104.914 225.371H58.2857C51.8477 225.371 46.6286 220.152 46.6286 213.714ZM54.4 213.714C54.4 215.86 56.1397 217.6 58.2857 217.6H104.914C107.06 217.6 108.8 215.86 108.8 213.714V174.857C108.8 168.419 103.581 163.2 97.1429 163.2H58.2857C56.1397 163.2 54.4 164.94 54.4 167.086V213.714Z" fill="black"/>
<path d="M112.686 58.2857C112.686 53.9937 116.165 50.5143 120.457 50.5143H151.543C155.835 50.5143 159.314 53.9937 159.314 58.2857V104.914C159.314 109.206 155.835 112.686 151.543 112.686H120.457C116.165 112.686 112.686 109.206 112.686 104.914V58.2857Z" fill="#DDDDDD"/>
<path d="M155.429 58.2857C155.429 56.2742 153.9 54.6184 151.941 54.419L151.543 54.4H120.457C118.311 54.4 116.571 56.1397 116.571 58.2857V104.914C116.571 107.06 118.311 108.8 120.457 108.8H151.543C153.689 108.8 155.429 107.06 155.429 104.914V58.2857ZM163.2 104.914C163.2 111.352 157.981 116.571 151.543 116.571H120.457C114.019 116.571 108.8 111.352 108.8 104.914V58.2857C108.8 51.8477 114.019 46.6286 120.457 46.6286H151.543L152.142 46.6437C158.302 46.9558 163.2 52.0487 163.2 58.2857V104.914Z" fill="black"/>
<path d="M112.686 120.457C112.686 116.165 116.165 112.686 120.457 112.686H151.543C155.835 112.686 159.314 116.165 159.314 120.457V151.543C159.314 155.835 155.835 159.314 151.543 159.314H120.457C116.165 159.314 112.686 155.835 112.686 151.543V120.457Z" fill="#DDDDDD"/>
<path d="M155.429 120.457C155.429 118.446 153.9 116.79 151.941 116.59L151.543 116.571H120.457C118.311 116.571 116.571 118.311 116.571 120.457V151.543L116.59 151.941C116.79 153.9 118.446 155.429 120.457 155.429H151.543C153.689 155.429 155.429 153.689 155.429 151.543V120.457ZM163.2 151.543C163.2 157.981 157.981 163.2 151.543 163.2H120.457C114.22 163.2 109.127 158.302 108.815 152.142L108.8 151.543V120.457C108.8 114.019 114.019 108.8 120.457 108.8H151.543L152.142 108.815C158.302 109.127 163.2 114.22 163.2 120.457V151.543Z" fill="black"/>
<path d="M112.686 167.086C112.686 162.794 116.165 159.314 120.457 159.314H151.543C155.835 159.314 159.314 162.794 159.314 167.086V213.714C159.314 218.006 155.835 221.486 151.543 221.486H120.457C116.165 221.486 112.686 218.006 112.686 213.714V167.086Z" fill="#DDDDDD"/>
<path d="M155.429 167.086C155.429 165.074 153.9 163.418 151.941 163.219L151.543 163.2H120.457C118.311 163.2 116.571 164.94 116.571 167.086V213.714C116.571 215.86 118.311 217.6 120.457 217.6H151.543C153.689 217.6 155.429 215.86 155.429 213.714V167.086ZM163.2 213.714C163.2 220.152 157.981 225.371 151.543 225.371H120.457C114.019 225.371 108.8 220.152 108.8 213.714V167.086C108.8 160.648 114.019 155.429 120.457 155.429H151.543L152.142 155.444C158.302 155.756 163.2 160.849 163.2 167.086V213.714Z" fill="black"/>
<path d="M159.314 58.2857C159.314 53.9937 162.794 50.5143 167.086 50.5143H213.714C218.006 50.5143 221.486 53.9937 221.486 58.2857V104.914C221.486 109.206 218.006 112.686 213.714 112.686H174.857C166.273 112.686 159.314 105.727 159.314 97.1429V58.2857Z" fill="#FF7F00"/>
<path d="M217.6 58.2857C217.6 56.1397 215.86 54.4 213.714 54.4H167.086C164.94 54.4 163.2 56.1397 163.2 58.2857V97.1429C163.2 103.581 168.419 108.8 174.857 108.8H213.714C215.86 108.8 217.6 107.06 217.6 104.914V58.2857ZM225.371 104.914C225.371 111.352 220.152 116.571 213.714 116.571H174.857C164.127 116.571 155.429 107.873 155.429 97.1429V58.2857C155.429 51.8477 160.648 46.6286 167.086 46.6286H213.714C220.152 46.6286 225.371 51.8477 225.371 58.2857V104.914Z" fill="black"/>
<path d="M159.314 120.457C159.314 116.165 162.794 112.686 167.086 112.686H213.714C218.006 112.686 221.486 116.165 221.486 120.457V151.543C221.486 155.835 218.006 159.314 213.714 159.314H167.086C162.794 159.314 159.314 155.835 159.314 151.543V120.457Z" fill="#DDDDDD"/>
<path d="M217.6 120.457C217.6 118.311 215.86 116.571 213.714 116.571H167.086C164.94 116.571 163.2 118.311 163.2 120.457V151.543L163.219 151.941C163.418 153.9 165.074 155.429 167.086 155.429H213.714C215.86 155.429 217.6 153.689 217.6 151.543V120.457ZM225.371 151.543C225.371 157.981 220.152 163.2 213.714 163.2H167.086C160.849 163.2 155.756 158.302 155.444 152.142L155.429 151.543V120.457C155.429 114.019 160.648 108.8 167.086 108.8H213.714C220.152 108.8 225.371 114.019 225.371 120.457V151.543Z" fill="black"/>
<path d="M159.314 174.857C159.314 166.273 166.273 159.314 174.857 159.314H213.714C218.006 159.314 221.486 162.794 221.486 167.086V213.714C221.486 218.006 218.006 221.486 213.714 221.486H167.086C162.794 221.486 159.314 218.006 159.314 213.714V174.857Z" fill="#FF0000"/>
<path d="M217.6 167.086C217.6 164.94 215.86 163.2 213.714 163.2H174.857C168.419 163.2 163.2 168.419 163.2 174.857V213.714C163.2 215.86 164.94 217.6 167.086 217.6H213.714C215.86 217.6 217.6 215.86 217.6 213.714V167.086ZM225.371 213.714C225.371 220.152 220.152 225.371 213.714 225.371H167.086C160.648 225.371 155.429 220.152 155.429 213.714V174.857C155.429 164.127 164.127 155.429 174.857 155.429H213.714C220.152 155.429 225.371 160.648 225.371 167.086V213.714Z" fill="black"/>
<path d="M221.486 61.2966C221.486 55.9921 226.682 52.2465 231.715 53.9239L262.8 64.2858C265.974 65.3436 268.114 68.3134 268.114 71.6585V104.914C268.114 109.206 264.635 112.686 260.343 112.686H229.257C224.965 112.686 221.486 109.206 221.486 104.914V61.2966Z" fill="#0000FF"/>
<path d="M217.6 104.914V61.2949C217.601 53.3397 225.394 47.7227 232.942 50.2373L264.027 60.6004C268.787 62.1871 272 66.6406 272 71.658V104.914C272 111.352 266.781 116.571 260.343 116.571H229.257C222.819 116.571 217.6 111.352 217.6 104.914ZM225.371 104.914C225.371 107.06 227.111 108.8 229.257 108.8H260.343C262.489 108.8 264.229 107.06 264.229 104.914V71.658C264.228 69.986 263.158 68.5026 261.572 67.9734L230.487 57.6103C227.971 56.7717 225.373 58.6435 225.371 61.2949V104.914Z" fill="black"/>
<path d="M53.9239 231.715C52.2465 226.682 55.9921 221.486 61.2966 221.486H104.914C109.206 221.486 112.686 224.965 112.686 229.257V260.343C112.686 264.635 109.206 268.114 104.914 268.114H71.6585C68.3134 268.114 65.3436 265.974 64.2858 262.8L53.9239 231.715Z" fill="#FFFF00"/>
<path d="M108.8 229.257C108.8 227.111 107.06 225.371 104.914 225.371H61.2949C58.6435 225.373 56.7717 227.971 57.6103 230.487L67.9734 261.572L68.2125 262.142C68.8738 263.409 70.1946 264.228 71.658 264.229H104.914C107.06 264.229 108.8 262.489 108.8 260.343V229.257ZM116.571 260.343C116.571 266.781 111.352 272 104.914 272H71.658C66.9546 272 62.7459 269.178 60.9306 264.904L60.6004 264.027L50.2373 232.942C47.7227 225.394 53.3397 217.601 61.2949 217.6H104.914C111.352 217.6 116.571 222.819 116.571 229.257V260.343Z" fill="black"/>
<path d="M112.686 11.6571C112.686 7.3651 116.165 3.88571 120.457 3.88571H151.543C155.835 3.88571 159.314 7.3651 159.314 11.6571V42.7429C159.314 47.0349 155.835 50.5143 151.543 50.5143H120.457C116.165 50.5143 112.686 47.0349 112.686 42.7429V11.6571Z" fill="#DDDDDD"/>
<path d="M155.429 11.6571C155.429 9.6456 153.9 7.98986 151.941 7.7904L151.543 7.77143H120.457C118.311 7.77143 116.571 9.51112 116.571 11.6571V42.7429L116.59 43.1413C116.79 45.1002 118.446 46.6286 120.457 46.6286H151.543C153.689 46.6286 155.429 44.8889 155.429 42.7429V11.6571ZM163.2 42.7429C163.2 49.1809 157.981 54.4 151.543 54.4H120.457C114.22 54.4 109.127 49.5018 108.815 43.3424L108.8 42.7429V11.6571C108.8 5.21908 114.019 1.2517e-07 120.457 0H151.543L152.142 0.0151786C158.302 0.327234 163.2 5.42016 163.2 11.6571V42.7429Z" fill="black"/>
<path d="M112.686 229.257C112.686 224.965 116.165 221.486 120.457 221.486H151.543C155.835 221.486 159.314 224.965 159.314 229.257V260.343C159.314 264.635 155.835 268.114 151.543 268.114H120.457C116.165 268.114 112.686 264.635 112.686 260.343V229.257Z" fill="#DDDDDD"/>
<path d="M155.429 229.257C155.429 227.246 153.9 225.59 151.941 225.39L151.543 225.371H120.457C118.311 225.371 116.571 227.111 116.571 229.257V260.343L116.59 260.741C116.79 262.7 118.446 264.229 120.457 264.229H151.543C153.689 264.229 155.429 262.489 155.429 260.343V229.257ZM163.2 260.343C163.2 266.781 157.981 272 151.543 272H120.457C114.22 272 109.127 267.102 108.815 260.942L108.8 260.343V229.257C108.8 222.819 114.019 217.6 120.457 217.6H151.543L152.142 217.615C158.302 217.927 163.2 223.02 163.2 229.257V260.343Z" fill="black"/>
<path d="M159.314 11.6571C159.314 7.3651 162.794 3.88571 167.086 3.88571H200.342C203.687 3.88571 206.656 6.0262 207.714 9.1996L218.076 40.2853C219.753 45.3176 216.008 50.5143 210.703 50.5143H167.086C162.794 50.5143 159.314 47.0349 159.314 42.7429V11.6571Z" fill="#FFFF00"/>
<path d="M200.342 0C205.359 0.000186138 209.813 3.21258 211.4 7.97254L221.763 39.0583C224.277 46.6056 218.66 54.3989 210.705 54.4H167.086C160.849 54.4 155.756 49.5018 155.444 43.3424L155.429 42.7429V11.6571C155.429 5.21908 160.648 1.2517e-07 167.086 0H200.342ZM163.2 42.7429L163.219 43.1413C163.418 45.1002 165.074 46.6286 167.086 46.6286H210.705C213.19 46.6275 214.99 44.3454 214.515 41.9877L214.39 41.5134L204.027 10.4277C203.497 8.84167 202.014 7.77161 200.342 7.77143H167.086C164.94 7.77143 163.2 9.51112 163.2 11.6571V42.7429Z" fill="black"/>
<path d="M3.88571 71.6585C3.88571 68.3134 6.0262 65.3436 9.1996 64.2858L40.2853 53.9239C45.3176 52.2465 50.5143 55.9921 50.5143 61.2966V104.914C50.5143 109.206 47.0349 112.686 42.7429 112.686H11.6571C7.3651 112.686 3.88571 109.206 3.88571 104.914V71.6585Z" fill="#00FF00"/>
<path d="M46.6286 61.2949C46.6275 58.8098 44.3454 57.0105 41.9877 57.485L41.5134 57.6103L10.4277 67.9734C8.84167 68.5026 7.77161 69.986 7.77143 71.658V104.914C7.77143 107.06 9.51112 108.8 11.6571 108.8H42.7429C44.8889 108.8 46.6286 107.06 46.6286 104.914V61.2949ZM54.4 104.914C54.4 111.352 49.1809 116.571 42.7429 116.571H11.6571C5.21908 116.571 1.2517e-07 111.352 0 104.914V71.658C0.000186138 66.6406 3.21258 62.1871 7.97254 60.6004L39.0583 50.2373L39.7641 50.0248C47.0835 48.0741 54.3989 53.5876 54.4 61.2949V104.914Z" fill="black"/>
<path d="M3.88571 120.457C3.88571 116.165 7.3651 112.686 11.6571 112.686H42.7429C47.0349 112.686 50.5143 116.165 50.5143 120.457V151.543C50.5143 155.835 47.0349 159.314 42.7429 159.314H11.6571C7.3651 159.314 3.88571 155.835 3.88571 151.543V120.457Z" fill="#DDDDDD"/>
<path d="M46.6286 120.457C46.6286 118.446 45.1002 116.79 43.1413 116.59L42.7429 116.571H11.6571C9.51112 116.571 7.77143 118.311 7.77143 120.457V151.543L7.7904 151.941C7.98986 153.9 9.6456 155.429 11.6571 155.429H42.7429C44.8889 155.429 46.6286 153.689 46.6286 151.543V120.457ZM54.4 151.543C54.4 157.981 49.1809 163.2 42.7429 163.2H11.6571C5.42016 163.2 0.327233 158.302 0.0151786 152.142L0 151.543V120.457C5.00687e-07 114.019 5.21908 108.8 11.6571 108.8H42.7429L43.3424 108.815C49.5018 109.127 54.4 114.22 54.4 120.457V151.543Z" fill="black"/>
<path d="M3.88571 167.086C3.88571 162.794 7.3651 159.314 11.6571 159.314H42.7429C47.0349 159.314 50.5143 162.794 50.5143 167.086V210.703C50.5143 216.008 45.3176 219.753 40.2853 218.076L9.1996 207.714C6.0262 206.656 3.88571 203.687 3.88571 200.342V167.086Z" fill="#00FF00"/>
<path d="M46.6286 167.086C46.6286 165.074 45.1002 163.418 43.1413 163.219L42.7429 163.2H11.6571C9.51112 163.2 7.77143 164.94 7.77143 167.086V200.342C7.77161 202.014 8.84167 203.497 10.4277 204.027L41.5134 214.39L41.9877 214.515C44.3454 214.99 46.6275 213.19 46.6286 210.705V167.086ZM54.4 210.705C54.3989 218.412 47.0835 223.926 39.7641 221.975L39.0583 221.763L7.97254 211.4C3.21258 209.813 0.00018599 205.359 0 200.342V167.086C5.00687e-07 160.648 5.21908 155.429 11.6571 155.429H42.7429L43.3424 155.444C49.5018 155.756 54.4 160.849 54.4 167.086V210.705Z" fill="black"/>
<path d="M159.314 229.257C159.314 224.965 162.794 221.486 167.086 221.486H210.703C216.008 221.486 219.753 226.682 218.076 231.715L207.714 262.8C206.656 265.974 203.687 268.114 200.342 268.114H167.086C162.794 268.114 159.314 264.635 159.314 260.343V229.257Z" fill="#FFFF00"/>
<path d="M210.705 217.6C218.412 217.601 223.926 224.917 221.975 232.236L221.763 232.942L211.4 264.027C209.813 268.787 205.359 272 200.342 272H167.086C160.849 272 155.756 267.102 155.444 260.942L155.429 260.343V229.257C155.429 222.819 160.648 217.6 167.086 217.6H210.705ZM163.2 260.343L163.219 260.741C163.418 262.7 165.074 264.229 167.086 264.229H200.342C202.014 264.228 203.497 263.158 204.027 261.572L214.39 230.487L214.515 230.012C214.99 227.655 213.19 225.372 210.705 225.371H167.086C164.94 225.371 163.2 227.111 163.2 229.257V260.343Z" fill="black"/>
<path d="M221.486 120.457C221.486 116.165 224.965 112.686 229.257 112.686H260.343C264.635 112.686 268.114 116.165 268.114 120.457V151.543C268.114 155.835 264.635 159.314 260.343 159.314H229.257C224.965 159.314 221.486 155.835 221.486 151.543V120.457Z" fill="#DDDDDD"/>
<path d="M264.229 120.457C264.229 118.446 262.7 116.79 260.741 116.59L260.343 116.571H229.257C227.111 116.571 225.371 118.311 225.371 120.457V151.543L225.39 151.941C225.59 153.9 227.246 155.429 229.257 155.429H260.343C262.489 155.429 264.229 153.689 264.229 151.543V120.457ZM272 151.543C272 157.981 266.781 163.2 260.343 163.2H229.257C223.02 163.2 217.927 158.302 217.615 152.142L217.6 151.543V120.457C217.6 114.019 222.819 108.8 229.257 108.8H260.343L260.942 108.815C267.102 109.127 272 114.22 272 120.457V151.543Z" fill="black"/>
<path d="M221.486 167.086C221.486 162.794 224.965 159.314 229.257 159.314H260.343C264.635 159.314 268.114 162.794 268.114 167.086V200.342C268.114 203.687 265.974 206.656 262.8 207.714L231.715 218.076C226.682 219.753 221.486 216.008 221.486 210.703V167.086Z" fill="#0000FF"/>
<path d="M264.229 200.342V167.086C264.229 165.074 262.7 163.418 260.741 163.219L260.343 163.2H229.257C227.111 163.2 225.371 164.94 225.371 167.086V210.705C225.373 213.356 227.971 215.228 230.487 214.39L261.572 204.027L262.142 203.788C263.409 203.126 264.228 201.805 264.229 200.342ZM272 200.342C272 205.045 269.178 209.254 264.904 211.069L264.027 211.4L232.942 221.763C225.394 224.277 217.601 218.66 217.6 210.705V167.086C217.6 160.648 222.819 155.429 229.257 155.429H260.343L260.942 155.444C267.102 155.756 272 160.849 272 167.086V200.342Z" fill="black"/>
</svg>
